HIERARCHY
ROOT cube_med
{
	OFFSET 0.000000 0.000000 0.000000
	CHANNELS 6 Xposition Yposition Zposition Yrotation Xrotation Zrotation
	End Site
	{
		OFFSET 0.000000 0.000000 0.000000
	}
}
MOTION
Frames: 183
Frame Time: 0.008333334
-4.093048 0.768311 4.395855 179.202200 -2.428772 -0.738037 
-4.092786 0.768540 4.395382 179.213500 -2.368744 -0.710297 
-4.092705 0.768930 4.394670 179.251400 -2.393494 -0.729919 
-4.092788 0.769178 4.394633 179.198700 -2.400665 -0.643372 
-4.092818 0.769117 4.394286 179.198300 -2.368256 -0.715607 
-4.092629 0.768956 4.394382 179.192000 -2.306183 -0.692566 
-4.092562 0.768892 4.394601 179.206100 -2.329254 -0.698456 
-4.092527 0.768508 4.395037 179.191700 -2.319092 -0.734650 
-4.092383 0.768424 4.396056 179.217600 -2.357666 -0.706909 
-4.092456 0.768253 4.397013 179.189300 -2.409637 -0.721130 
-4.092127 0.767437 4.398494 179.224900 -2.423553 -0.661652 
-4.092480 0.767153 4.399236 179.261300 -2.413361 -0.705536 
-4.092988 0.767283 4.399413 179.268700 -2.538696 -0.773651 
-4.093266 0.767292 4.399535 179.264600 -2.504211 -0.748230 
-4.093368 0.766685 4.399661 179.239500 -2.497101 -0.680878 
-4.094060 0.766557 4.399979 179.246300 -2.556458 -0.723480 
-4.094551 0.767043 4.399911 179.221900 -2.508301 -0.734528 
-4.094570 0.766792 4.399776 179.260200 -2.600037 -0.776611 
-4.094557 0.766786 4.399616 179.296100 -2.529907 -0.752625 
-4.094429 0.766526 4.399177 179.215900 -2.510468 -0.726044 
-4.094103 0.766819 4.399029 179.254900 -2.515808 -0.743988 
-4.094223 0.766975 4.399547 179.216700 -2.440948 -0.809052 
-4.093569 0.766962 4.399410 179.253400 -2.501251 -0.765869 
-4.093448 0.766438 4.400032 179.256700 -2.576660 -0.789398 
-4.093186 0.766615 4.400325 179.224400 -2.504211 -0.757874 
-4.092891 0.766403 4.400404 179.179400 -2.416748 -0.693878 
-4.093180 0.766605 4.400019 179.261500 -2.472687 -0.794861 
-4.093262 0.766833 4.400204 179.219800 -2.511566 -0.816498 
-4.093427 0.766641 4.399963 179.280600 -2.523010 -0.783875 
-4.093983 0.766565 4.400241 179.228000 -2.533966 -0.738983 
-4.093977 0.766416 4.399718 179.222700 -2.530792 -0.741577 
-4.093986 0.766363 4.399959 179.248300 -2.444153 -0.694641 
-4.094236 0.766650 4.399673 179.232200 -2.351685 -0.743713 
-4.094636 0.766740 4.399807 179.261000 -2.521820 -0.729767 
-4.094073 0.766362 4.400296 179.241600 -2.502167 -0.683746 
-4.094015 0.766481 4.399915 179.249700 -2.562134 -0.735870 
-4.093560 0.766545 4.399697 179.272500 -2.529297 -0.715027 
-4.093581 0.766478 4.400343 179.176800 -2.579224 -0.740692 
-4.093270 0.766607 4.400117 179.253800 -2.531860 -0.789337 
-4.093072 0.766373 4.400376 179.226100 -2.494507 -0.765503 
-4.093303 0.766289 4.400021 179.219500 -2.495148 -0.653046 
-4.093273 0.766522 4.400602 179.217800 -2.477386 -0.691071 
-4.093875 0.767028 4.400142 179.223800 -2.529419 -0.816132 
-4.093699 0.766718 4.400149 179.250100 -2.522217 -0.724793 
-4.094510 0.767038 4.400167 179.236200 -2.595886 -0.764465 
-4.094251 0.766456 4.399505 179.215700 -2.501160 -0.703369 
-4.094110 0.766528 4.400094 179.221700 -2.542969 -0.723755 
-4.094227 0.766526 4.400068 179.230100 -2.523926 -0.723389 
-4.094499 0.766846 4.400126 179.186000 -2.559387 -0.801697 
-4.094191 0.766412 4.400029 179.235300 -2.562897 -0.697235 
-4.093696 0.766598 4.399858 179.248700 -2.499878 -0.704346 
-4.093486 0.766623 4.399955 179.278600 -2.552185 -0.733856 
-4.093463 0.766471 4.400694 179.134900 -2.479340 -0.720032 
-4.093624 0.766826 4.399984 179.243800 -2.531189 -0.744782 
-4.093584 0.766299 4.400489 179.258900 -2.489960 -0.664856 
-4.093903 0.766438 4.400386 179.160500 -2.490173 -0.719666 
-4.094074 0.766661 4.400522 179.234100 -2.572540 -0.793121 
-4.093864 0.766574 4.400436 179.201600 -2.457123 -0.744598 
-4.093963 0.766435 4.400312 179.213800 -2.503937 -0.696869 
-4.094195 0.766501 4.400003 179.228400 -2.538574 -0.679413 
-4.094165 0.766650 4.399749 179.251200 -2.535797 -0.739594 
-4.094530 0.766805 4.400009 179.193200 -2.562866 -0.762421 
-4.094369 0.766984 4.399824 179.211700 -2.519867 -0.763794 
-4.094424 0.766899 4.399926 179.192900 -2.513397 -0.733582 
-4.094021 0.766509 4.400260 179.243500 -2.561676 -0.713867 
-4.094155 0.767050 4.400136 179.233500 -2.528870 -0.778290 
-4.093850 0.766848 4.399904 179.251900 -2.556030 -0.744110 
-4.094066 0.766326 4.400221 179.222700 -2.577484 -0.695374 
-4.094177 0.766287 4.400342 179.183100 -2.518890 -0.732636 
-4.093991 0.765853 4.400606 179.205800 -2.572205 -0.677551 
-4.094059 0.765733 4.400901 179.272500 -2.591705 -0.685089 
-4.094602 0.765008 4.401989 179.226600 -2.537598 -0.734924 
-4.094995 0.764650 4.402374 179.247000 -2.490173 -0.731415 
-4.094982 0.763095 4.403365 179.255900 -2.554474 -0.607636 
-4.094878 0.763002 4.404180 179.228000 -2.616119 -0.681488 
-4.095370 0.762037 4.405945 179.243100 -2.607056 -0.670837 
-4.095653 0.761881 4.408021 179.201400 -2.601929 -0.758453 
-4.095572 0.761800 4.408211 179.313500 -2.637390 -0.785797 
-4.094956 0.761359 4.408732 179.231300 -2.637054 -0.752777 
-4.094626 0.761504 4.408343 179.268100 -2.651276 -0.705719 
-4.094063 0.761894 4.408168 179.231100 -2.616211 -0.793366 
-4.094378 0.761870 4.407412 179.234900 -2.591919 -0.824921 
-4.094549 0.761800 4.407249 179.155600 -2.588562 -0.759705 
-4.094895 0.762115 4.405873 179.239600 -2.633179 -0.697846 
-4.095277 0.761959 4.406020 179.295200 -2.578308 -0.781158 
-4.095108 0.762076 4.405211 179.307700 -2.627075 -0.674866 
-4.095110 0.761511 4.405730 179.301800 -2.637390 -0.649567 
-4.095656 0.761904 4.405835 179.323200 -2.547729 -0.792419 
-4.095440 0.761571 4.406141 179.332700 -2.598999 -0.747040 
-4.095177 0.761659 4.406602 179.254000 -2.607056 -0.703033 
-4.094631 0.761668 4.405374 179.286000 -2.664459 -0.662354 
-4.094328 0.761815 4.405012 179.264900 -2.654236 -0.638611 
-4.093864 0.761874 4.404846 179.303400 -2.637634 -0.684601 
-4.093210 0.762162 4.405407 179.276000 -2.632843 -0.811707 
-4.092612 0.762555 4.405491 179.148100 -2.553986 -0.770813 
-4.091560 0.762509 4.405982 179.196400 -2.563721 -0.751007 
-4.091136 0.762333 4.405997 179.236300 -2.612885 -0.788605 
-4.091142 0.762523 4.405495 179.224400 -2.550659 -0.738983 
-4.090889 0.762191 4.406073 179.186300 -2.536346 -0.705505 
-4.090911 0.762240 4.406271 179.205300 -2.629669 -0.775909 
-4.091004 0.762314 4.406518 179.236500 -2.618835 -0.776184 
-4.091269 0.762040 4.406126 179.267900 -2.558746 -0.762360 
-4.091486 0.761857 4.406528 179.246500 -2.600525 -0.793274 
-4.091841 0.761868 4.406531 179.261600 -2.635040 -0.793304 
-4.092310 0.761262 4.406721 179.235700 -2.579041 -0.712219 
-4.092281 0.761752 4.406434 179.244500 -2.533997 -0.882660 
-4.092446 0.762008 4.407148 179.243900 -2.652863 -0.742737 
-4.092101 0.761249 4.406921 179.233300 -2.597412 -0.762421 
-4.091828 0.761648 4.406755 179.257700 -2.550751 -0.860413 
-4.091759 0.761435 4.406776 179.251100 -2.601288 -0.759583 
-4.091669 0.762035 4.407288 179.288000 -2.704620 -0.790100 
-4.091501 0.762205 4.406685 179.220100 -2.534241 -0.813049 
-4.091238 0.762127 4.406648 179.244400 -2.577820 -0.803955 
-4.091356 0.762766 4.405844 179.196000 -2.613434 -0.747650 
-4.091407 0.762372 4.406172 179.219900 -2.595856 -0.710663 
-4.091856 0.762607 4.405868 179.180900 -2.585419 -0.782684 
-4.092474 0.762806 4.405475 179.153100 -2.608673 -0.684937 
-4.092164 0.763031 4.405755 179.208200 -2.626160 -0.764557 
-4.092844 0.763378 4.405258 179.150000 -2.539154 -0.724670 
-4.092257 0.763562 4.405137 179.212400 -2.512207 -0.686890 
-4.092484 0.763733 4.404235 179.162600 -2.601654 -0.676270 
-4.092056 0.764360 4.403509 179.273300 -2.587250 -0.714172 
-4.091687 0.764284 4.403551 179.184800 -2.521667 -0.686157 
-4.091534 0.764818 4.402554 179.149100 -2.501526 -0.701202 
-4.090835 0.765177 4.401929 179.114000 -2.510162 -0.698639 
-4.090413 0.765147 4.401802 179.089100 -2.432648 -0.668610 
-4.089852 0.765203 4.401571 179.078800 -2.455872 -0.715485 
-4.089851 0.765354 4.401960 179.116400 -2.501740 -0.657196 
-4.089772 0.765269 4.402208 179.095700 -2.443542 -0.614441 
-4.090047 0.765509 4.401724 179.118400 -2.486511 -0.674072 
-4.089832 0.765405 4.402421 179.158800 -2.503326 -0.771973 
-4.090249 0.765211 4.402151 179.082600 -2.469482 -0.683533 
-4.090159 0.765042 4.401851 179.119200 -2.539764 -0.657349 
-4.091144 0.765031 4.402243 179.152700 -2.561676 -0.666626 
-4.091695 0.764770 4.401526 179.215600 -2.551666 -0.651367 
-4.091578 0.764954 4.401357 179.265500 -2.550354 -0.708160 
-4.092154 0.764945 4.401197 179.188700 -2.532532 -0.658844 
-4.092253 0.764995 4.400959 179.206200 -2.471558 -0.639160 
-4.092338 0.765064 4.400928 179.248800 -2.530975 -0.691071 
-4.092839 0.765089 4.400413 179.198500 -2.495087 -0.628479 
-4.093002 0.765201 4.400045 179.179600 -2.561462 -0.683106 
-4.092824 0.765054 4.400313 179.216100 -2.598969 -0.628998 
-4.093073 0.765319 4.400684 179.195200 -2.595581 -0.709015 
-4.092830 0.765163 4.400527 179.170000 -2.583252 -0.651550 
-4.092515 0.764967 4.400764 179.220200 -2.568207 -0.676514 
-4.092097 0.765169 4.400577 179.224300 -2.566162 -0.667084 
-4.091621 0.765167 4.401152 179.174300 -2.522583 -0.654907 
-4.091663 0.764810 4.400976 179.149800 -2.528839 -0.614471 
-4.091360 0.764776 4.400920 179.177900 -2.533081 -0.642853 
-4.091282 0.764858 4.400765 179.155300 -2.552856 -0.632904 
-4.091435 0.765033 4.400597 179.127800 -2.503632 -0.620453 
-4.091270 0.765195 4.400853 179.164200 -2.581055 -0.746155 
-4.091376 0.765019 4.400914 179.161800 -2.506653 -0.641876 
-4.091461 0.765063 4.400774 179.192600 -2.548462 -0.713623 
-4.091858 0.765250 4.400499 179.161300 -2.531372 -0.690216 
-4.091609 0.765199 4.400786 179.196500 -2.578186 -0.698059 
-4.092104 0.765186 4.400875 179.156900 -2.528839 -0.596558 
-4.091923 0.765231 4.401238 179.159000 -2.548950 -0.731293 
-4.091832 0.764866 4.401023 179.170300 -2.588470 -0.643341 
-4.091793 0.765004 4.401025 179.140400 -2.509979 -0.663147 
-4.091731 0.765156 4.401128 179.158000 -2.468811 -0.595795 
-4.091496 0.765257 4.401075 179.176800 -2.408173 -0.608368 
-4.091702 0.765396 4.400939 179.163900 -2.413208 -0.650330 
-4.091455 0.765513 4.401348 179.174300 -2.402588 -0.636108 
-4.091815 0.765406 4.400932 179.137300 -2.432404 -0.632477 
-4.091386 0.765048 4.401089 179.149100 -2.440277 -0.625183 
-4.091455 0.765414 4.401036 179.134000 -2.444122 -0.667969 
-4.091506 0.765421 4.401111 179.128100 -2.462677 -0.662720 
-4.091545 0.765410 4.400848 179.183900 -2.575439 -0.710938 
-4.091593 0.765248 4.401254 179.126300 -2.511108 -0.654297 
-4.091680 0.765241 4.401210 179.138700 -2.433075 -0.644806 
-4.092154 0.765431 4.401098 179.147500 -2.478333 -0.586884 
-4.092067 0.765504 4.400684 179.169900 -2.477081 -0.667542 
-4.091589 0.764993 4.401039 179.192800 -2.498627 -0.688355 
-4.091842 0.765455 4.400274 179.176300 -2.519745 -0.726440 
-4.093830 0.765948 4.400658 178.895600 -2.348358 -0.740692 
-4.102277 0.765607 4.404220 178.318600 -2.361359 -0.489563 
-4.110617 0.766407 4.403883 178.179100 -2.109711 -0.502960 
-4.115667 0.770419 4.397849 178.755200 -1.705139 -0.485931 
-4.119678 0.776620 4.387835 178.973000 -0.965820 -0.461914 
-4.123822 0.785089 4.375213 178.865400 -0.267975 -0.595490 
-4.125247 0.798082 4.365466 178.486000 0.240767 -0.516876 
-4.121727 0.815358 4.358478 177.843900 0.139642 -0.194916 
